<?xml version="1.0" encoding="UTF-8"?>
<svg width="260px" height="70px" viewBox="0 0 260 70" version="1.1" xmlns="http://www.w3.org/2000/svg" xmlns:xlink="http://www.w3.org/1999/xlink">
    <!-- Generator: Sketch 51 (57462) - http://www.bohemiancoding.com/sketch -->
    <title>SNSW-logo</title>
    <desc>Created with Sketch.</desc>
    <defs></defs>
    <g id="SNSW-logo" stroke="none" stroke-width="1" fill="none" fill-rule="evenodd">
        <g id="nsw">
            <path d="M88.2157801,39.3398431 C87.3721667,30.0223535 73.3070951,23.1323535 53.3076396,20.7920792 C65.5109437,24.3533662 73.3798204,30.0950329 74.0198029,37.1449274 C75.3434033,51.30286 47.0968996,65.4026492 10.9669741,68.6877547 C7.27252927,69.0366155 3.5780844,69.2401176 0,69.3273328 C9.35038077,70.2242224 18.7652174,70.2242224 28.1155982,69.3273328 C62.5437517,66.2602652 89.437565,52.81459 88.2157801,39.3398431" id="Shape-Copy-9" fill="#0065A4" fill-rule="nonzero"></path>
            <path d="M100.661134,36.289531 C99.6424421,27.1932436 84.4493836,21.0129909 63.6826265,20.0990099 C82.7758188,22.7539072 96.091574,29.5870034 96.8483164,38.6687831 C97.2121348,42.7454287 95.0146714,46.8220742 90.8234829,50.5940594 C97.5177423,46.2417688 101.214138,41.1931117 100.661134,36.2750233" id="Shape-Copy-10" fill="#0065A4" fill-rule="nonzero"></path>
            <path d="M9.71590847,32.3833098 C9.49069888,28.8092101 10.6384099,25.2837777 12.9253799,22.5247525 C8.060344,26.3376945 5.46081732,30.5420792 5.94005967,34.6739745 C6.81140939,43.2277228 20.3028076,49.3168317 39.1094391,50.9405941 C22.3650019,48.3019802 10.6453482,41.4734795 9.71590847,32.3833098" id="Shape-Copy-11" fill="#0065A4" fill-rule="nonzero"></path>
            <path d="M93.4586121,0 L93.7934337,0 C88.2667382,0.148114854 82.7515854,0.587448553 77.2707202,1.31618926 C42.9879095,5.84973003 16.6389128,20.4740551 18.42948,34.0308045 C19.5940765,42.8053995 38.3877532,51.2290108 50.4558849,50.5562918 C53.5650299,50.3885491 56.5654015,49.3500592 59.1175716,47.5583052 C65.5374101,43.1710077 67.9685053,35.5224856 64.5620605,30.5063421 C61.1556156,25.4901986 53.1926867,25.0075959 46.7728483,29.4241421 C40.3530099,33.8406882 37.8345698,41.4453373 41.2264573,46.4614808 C41.4288825,46.7601709 41.6526886,47.0436574 41.8961003,47.3096917 C37.2231567,44.8381807 34.3407802,41.6647022 33.5983499,37.6868857 C30.9634502,23.6329093 57.7782856,6.78568684 93.4586121,0" id="Shape-Copy-12" fill="#E87D1E" fill-rule="nonzero"></path>
            <path d="M115.952219,53.3663366 L115.952219,45.9061386 C115.952219,43.5857426 114.805932,42.3132673 112.637953,42.3132673 C110.469975,42.3132673 109.24893,43.6106931 109.24893,45.9061386 L109.24893,53.3663366 L107.978047,53.3663366 L107.978047,41.340198 L109.24893,41.340198 L109.24893,42.7623762 C110.146025,41.7144554 111.317231,41.190495 112.787469,41.190495 C114.108192,41.190495 115.179721,41.5647525 115.977138,42.3382178 C116.799475,43.1366337 117.223103,44.2594059 117.223103,45.6815842 L117.223103,53.3663366 L115.952219,53.3663366 Z M120.141428,47.6277228 C120.141428,50.6966337 121.48707,52.3683168 124.053756,52.3683168 C125.474156,52.3683168 126.346331,51.9441584 127.368022,50.9211881 L128.314955,51.669703 C127.09391,52.8922772 125.972542,53.5160396 123.978999,53.5160396 C120.664733,53.5160396 118.870544,51.370297 118.870544,47.3532673 C118.870544,43.4609901 120.664733,41.190495 123.679967,41.190495 C126.695201,41.190495 128.48939,43.3611881 128.48939,47.0538614 L128.48939,47.6277228 L120.141428,47.6277228 Z M127.218506,46.6047525 C127.143748,45.4570297 127.118829,45.0578218 126.794878,44.3342574 C126.271573,43.0617822 125.075447,42.3132673 123.679967,42.3132673 C122.284487,42.3132673 121.088361,43.0617822 120.565056,44.3342574 C120.290944,45.1077228 120.216186,45.4320792 120.141428,46.6047525 L127.218506,46.6047525 Z M141.200996,53.3663366 L139.905193,53.3663366 L136.516169,43.3362376 L133.127146,53.3663366 L131.831343,53.3663366 L127.993773,41.340198 L129.389253,41.340198 L132.454325,51.8693069 L135.893187,41.340198 L137.139152,41.340198 L140.578014,51.8693069 L143.643086,41.340198 L145.038566,41.340198 L141.200996,53.3663366 Z M157.977214,49.9481188 C157.977214,52.1437624 156.133187,53.5160396 153.167792,53.5160396 C151.074572,53.5160396 149.529576,52.9671287 148.30853,51.7944554 L149.180706,50.9211881 C150.102719,51.8942574 151.423442,52.3932673 153.117953,52.3932673 C155.485286,52.3932673 156.73125,51.569901 156.73125,49.9481188 C156.73125,48.6756436 156.03351,48.1017822 154.438675,47.9271287 L152.445132,47.7524752 C150.027961,47.5528713 148.831836,46.5049505 148.831836,44.6087129 C148.831836,42.5128713 150.526347,41.190495 153.142872,41.190495 C154.812465,41.190495 156.282703,41.6645545 157.354232,42.4629703 L156.506976,43.3112871 C155.584963,42.6376238 154.463595,42.2883168 153.142872,42.2883168 C151.149329,42.2883168 150.0778,43.1116832 150.0778,44.6087129 C150.0778,45.8811881 150.825379,46.4550495 152.51989,46.629703 L154.463595,46.8043564 C156.457138,47.0039604 157.977214,47.6027723 157.977214,49.9481188 Z M168.421165,47.3532673 C168.421165,49.0748515 168.196892,50.9211881 166.926008,52.1936634 C166.053833,53.0669307 164.957384,53.5160396 163.586823,53.5160396 C162.241182,53.5160396 161.119814,53.0669307 160.247638,52.1936634 C158.976755,50.9211881 158.752481,49.0748515 158.752481,47.3532673 C158.752481,45.6316832 158.976755,43.7853465 160.247638,42.5128713 C161.119814,41.639604 162.241182,41.190495 163.586823,41.190495 C164.957384,41.190495 166.053833,41.639604 166.926008,42.5128713 C168.196892,43.7853465 168.421165,45.6316832 168.421165,47.3532673 Z M167.150281,47.3532673 C167.150281,45.9560396 167.075524,44.3342574 166.078752,43.3362376 C165.405931,42.6625743 164.558675,42.3132673 163.586823,42.3132673 C162.614971,42.3132673 161.767715,42.6625743 161.094894,43.3362376 C160.098123,44.3342574 160.023365,45.9560396 160.023365,47.3532673 C160.023365,48.750495 160.098123,50.3722772 161.094894,51.370297 C161.767715,52.0439604 162.614971,52.3932673 163.586823,52.3932673 C164.558675,52.3932673 165.405931,52.0439604 166.078752,51.370297 C167.075524,50.3722772 167.150281,48.750495 167.150281,47.3532673 Z M178.042779,53.3663366 L178.042779,51.9441584 C177.145685,52.9920792 175.974478,53.5160396 174.50424,53.5160396 C173.183518,53.5160396 172.111989,53.1417822 171.314571,52.3683168 C170.492235,51.569901 170.068607,50.4471287 170.068607,49.0249505 L170.068607,41.340198 L171.339491,41.340198 L171.339491,48.800396 C171.339491,51.1207921 172.485778,52.3932673 174.653756,52.3932673 C176.821734,52.3932673 178.042779,51.0958416 178.042779,48.800396 L178.042779,41.340198 L179.313663,41.340198 L179.313663,53.3663366 L178.042779,53.3663366 Z M184.99803,53.3663366 C183.104164,53.3663366 182.107392,52.0439604 182.107392,50.2225743 L182.107392,42.2883168 L180.462719,42.2883168 L180.462719,41.340198 L182.107392,41.340198 L182.107392,37.4978218 L183.378276,37.4978218 L183.378276,41.340198 L186.094478,41.340198 L186.094478,42.2883168 L183.378276,42.2883168 L183.378276,50.2475248 C183.378276,51.52 183.951419,52.2435644 185.222303,52.2435644 L186.094478,52.2435644 L186.094478,53.3663366 L184.99803,53.3663366 Z M195.541657,53.3663366 L195.541657,45.9061386 C195.541657,43.5857426 194.39537,42.3132673 192.227392,42.3132673 C190.059414,42.3132673 188.838369,43.6106931 188.838369,45.9061386 L188.838369,53.3663366 L187.567485,53.3663366 L187.567485,35.6015842 L188.838369,35.6015842 L188.838369,42.7623762 C189.735463,41.7144554 190.90667,41.190495 192.376908,41.190495 C195.142949,41.190495 196.812541,42.8871287 196.812541,45.6815842 L196.812541,53.3663366 L195.541657,53.3663366 Z M214.311419,53.3663366 L213.015616,53.3663366 L209.626593,43.3362376 L206.23757,53.3663366 L204.941767,53.3663366 L201.104196,41.340198 L202.499676,41.340198 L205.564749,51.8693069 L209.003611,41.340198 L210.249575,41.340198 L213.688437,51.8693069 L216.753509,41.340198 L218.14899,41.340198 L214.311419,53.3663366 Z M225.627545,53.3663366 L225.627545,52.1687129 C224.605854,53.1916832 223.658921,53.5160396 221.96441,53.5160396 C220.170221,53.5160396 219.198368,53.2166337 218.425871,52.4182178 C217.852727,51.8443564 217.553695,50.9710891 217.553695,50.0728713 C217.553695,47.8772277 219.123611,46.6047525 221.740136,46.6047525 L225.627545,46.6047525 L225.627545,45.2574257 C225.627545,43.3362376 224.705531,42.3132673 222.238522,42.3132673 C220.54401,42.3132673 219.696754,42.7374257 218.924256,43.8352475 L218.002243,43.0368317 C219.023933,41.6146535 220.269898,41.190495 222.238522,41.190495 C225.428191,41.190495 226.898429,42.6126733 226.898429,45.1326733 L226.898429,53.3663366 L225.627545,53.3663366 Z M225.627545,47.6277228 L221.889652,47.6277228 C219.84627,47.6277228 218.824579,48.4261386 218.824579,50.0479208 C218.824579,51.6447525 219.771512,52.3932673 221.96441,52.3932673 C223.060858,52.3932673 224.082549,52.2934653 224.954724,51.470099 C225.403271,51.0459406 225.627545,50.2724752 225.627545,49.1746535 L225.627545,47.6277228 Z M232.134248,53.3663366 C230.165624,53.3663366 229.243611,52.1437624 229.243611,50.2475248 L229.243611,35.6015842 L230.514494,35.6015842 L230.514494,50.2225743 C230.514494,51.5948515 230.938122,52.2435644 232.358522,52.2435644 L233.230697,52.2435644 L233.230697,53.3663366 L232.134248,53.3663366 Z M234.055802,47.6277228 C234.055802,50.6966337 235.401444,52.3683168 237.96813,52.3683168 C239.38853,52.3683168 240.260705,51.9441584 241.282396,50.9211881 L242.229329,51.669703 C241.008284,52.8922772 239.886916,53.5160396 237.893372,53.5160396 C234.579107,53.5160396 232.784918,51.370297 232.784918,47.3532673 C232.784918,43.4609901 234.579107,41.190495 237.594341,41.190495 C240.609575,41.190495 242.403764,43.3611881 242.403764,47.0538614 L242.403764,47.6277228 L234.055802,47.6277228 Z M241.13288,46.6047525 C241.058122,45.4570297 241.033203,45.0578218 240.709252,44.3342574 C240.185947,43.0617822 238.989821,42.3132673 237.594341,42.3132673 C236.198861,42.3132673 235.002735,43.0617822 234.47943,44.3342574 C234.205318,45.1077228 234.13056,45.4320792 234.055802,46.6047525 L241.13288,46.6047525 Z M252.673279,49.9481188 C252.673279,52.1437624 250.829252,53.5160396 247.863857,53.5160396 C245.770636,53.5160396 244.22564,52.9671287 243.004595,51.7944554 L243.87677,50.9211881 C244.798784,51.8942574 246.119506,52.3932673 247.814018,52.3932673 C250.18135,52.3932673 251.427315,51.569901 251.427315,49.9481188 C251.427315,48.6756436 250.729575,48.1017822 249.13474,47.9271287 L247.141197,47.7524752 C244.724026,47.5528713 243.5279,46.5049505 243.5279,44.6087129 C243.5279,42.5128713 245.222412,41.190495 247.838937,41.190495 C249.50853,41.190495 250.978768,41.6645545 252.050297,42.4629703 L251.203041,43.3112871 C250.281028,42.6376238 249.15966,42.2883168 247.838937,42.2883168 C245.845394,42.2883168 244.773865,43.1116832 244.773865,44.6087129 C244.773865,45.8811881 245.521443,46.4550495 247.215955,46.629703 L249.15966,46.8043564 C251.153203,47.0039604 252.673279,47.6027723 252.673279,49.9481188 Z" id="new-south-wales-copy" fill="#E87D1E" fill-rule="evenodd"></path>
            <path d="M117.413977,29.2038614 C117.413977,32.0532426 114.988846,33.4159901 111.945059,33.4159901 C109.915867,33.4159901 108.084646,33.192995 106.451394,31.557698 L108.554824,29.4516337 C109.618912,30.5170545 111.004702,30.6657178 111.994551,30.6657178 C113.108132,30.6657178 114.271205,30.2940594 114.271205,29.3277475 C114.271205,28.6835396 113.924758,28.2375495 112.910162,28.1384406 L110.880971,27.9402228 C108.554824,27.7172277 107.119542,26.7013614 107.119542,24.3227475 C107.119542,21.6468069 109.470435,20.2097277 112.093536,20.2097277 C114.097982,20.2097277 115.780726,20.5566089 117.018038,21.7211386 L115.038339,23.7280941 C114.295951,23.0591089 113.157624,22.8608911 112.044044,22.8608911 C110.757239,22.8608911 110.212822,23.4555446 110.212822,24.0997525 C110.212822,24.5705198 110.410792,25.1156188 111.549119,25.2147277 L113.578311,25.4129455 C116.127173,25.6607178 117.413977,27.0234653 117.413977,29.2038614 Z M135.627209,20.3583911 L131.692557,33.2673267 L129.044709,33.2673267 L126.347369,25.1651733 L123.650029,33.2673267 L121.002182,33.2673267 L117.042784,20.3583911 L120.457765,20.3583911 L122.536449,28.3366584 L125.15955,20.3583911 L127.510443,20.3583911 L130.15829,28.3366584 L132.236974,20.3583911 L135.627209,20.3583911 Z M139.388637,33.2673267 L136.171626,33.2673267 L136.171626,20.3583911 L139.388637,20.3583911 L139.388637,33.2673267 Z M139.413383,18.1532178 L136.122133,18.1532178 L136.122133,15.5268317 L139.413383,15.5268317 L139.413383,18.1532178 Z M159.829029,33.2673267 L156.612018,33.2673267 L156.612018,25.4625 C156.612018,23.7033168 155.498438,23.1086634 154.483842,23.1086634 C153.493992,23.1086634 152.330919,23.7033168 152.330919,25.3881683 L152.330919,33.2673267 L149.113908,33.2673267 L149.113908,25.4625 C149.113908,23.7033168 148.000328,23.1086634 146.985732,23.1086634 C145.971136,23.1086634 144.832809,23.7033168 144.832809,25.4625 L144.832809,33.2673267 L141.615798,33.2673267 L141.615798,20.3583911 L144.75857,20.3583911 L144.75857,21.547698 C145.599943,20.680495 146.787762,20.2097277 147.975581,20.2097277 C149.410863,20.2097277 150.573936,20.7300495 151.390562,21.8450248 C152.479397,20.7052723 153.64247,20.2097277 155.250975,20.2097277 C156.53778,20.2097277 157.700853,20.6309406 158.418494,21.3494802 C159.457836,22.3901238 159.829029,23.6042079 159.829029,25.0165099 L159.829029,33.2673267 Z M180.145691,33.2673267 L176.92868,33.2673267 L176.92868,25.4625 C176.92868,23.7033168 175.815099,23.1086634 174.800503,23.1086634 C173.810654,23.1086634 172.647581,23.7033168 172.647581,25.3881683 L172.647581,33.2673267 L169.43057,33.2673267 L169.43057,25.4625 C169.43057,23.7033168 168.316989,23.1086634 167.302393,23.1086634 C166.287798,23.1086634 165.149471,23.7033168 165.149471,25.4625 L165.149471,33.2673267 L161.93246,33.2673267 L161.93246,20.3583911 L165.075232,20.3583911 L165.075232,21.547698 C165.916604,20.680495 167.104423,20.2097277 168.292243,20.2097277 C169.727525,20.2097277 170.890598,20.7300495 171.707224,21.8450248 C172.796058,20.7052723 173.959131,20.2097277 175.567637,20.2097277 C176.854441,20.2097277 178.017514,20.6309406 178.735155,21.3494802 C179.774497,22.3901238 180.145691,23.6042079 180.145691,25.0165099 L180.145691,33.2673267 Z M185.466132,33.2673267 L182.249121,33.2673267 L182.249121,20.3583911 L185.466132,20.3583911 L185.466132,33.2673267 Z M185.490878,18.1532178 L182.199629,18.1532178 L182.199629,15.5268317 L185.490878,15.5268317 L185.490878,18.1532178 Z M198.408415,33.2673267 L195.191404,33.2673267 L195.191404,25.4625 C195.191404,23.7033168 194.077823,23.1086634 193.063227,23.1086634 C192.048631,23.1086634 190.910304,23.7033168 190.910304,25.4625 L190.910304,33.2673267 L187.693293,33.2673267 L187.693293,20.3583911 L190.836066,20.3583911 L190.836066,21.547698 C191.677438,20.6557178 192.865257,20.2097277 194.053077,20.2097277 C195.339881,20.2097277 196.379223,20.6309406 197.096864,21.3494802 C198.136206,22.3901238 198.408415,23.6042079 198.408415,25.0165099 L198.408415,33.2673267 Z M210.633056,32.7965594 C210.633056,35.8937129 208.430641,38.1484406 204.966168,38.1484406 C202.986469,38.1484406 201.625425,37.752005 200.289129,36.4635891 L202.293574,34.4318564 C203.011215,35.1256188 203.728856,35.4229455 204.81769,35.4229455 C206.747897,35.4229455 207.416045,34.060198 207.416045,32.747005 L207.416045,31.4338119 C206.574673,32.3753465 205.60957,32.7222277 204.347512,32.7222277 C203.085453,32.7222277 201.996619,32.3010149 201.278978,31.5824752 C200.066412,30.3683911 199.967427,28.7083168 199.967427,26.4535891 C199.967427,24.1988614 200.066412,22.5635644 201.278978,21.3494802 C201.996619,20.6309406 203.1102,20.2097277 204.372258,20.2097277 C205.733301,20.2097277 206.624166,20.5813861 207.51503,21.5724752 L207.51503,20.3583911 L210.633056,20.3583911 L210.633056,32.7965594 Z M207.416045,26.4535891 C207.416045,24.7439604 207.193329,23.1086634 205.287869,23.1086634 C203.382408,23.1086634 203.184438,24.7439604 203.184438,26.4535891 C203.184438,28.1632178 203.382408,29.8232921 205.287869,29.8232921 C207.193329,29.8232921 207.416045,28.1632178 207.416045,26.4535891 Z" id="swimming-copy-3" fill="#0065A4" fill-rule="evenodd"></path>
        </g>
    </g>
</svg>